<?xml version="1.0" encoding="utf-8"?>
<!-- Generator: Adobe Illustrator 23.0.3, SVG Export Plug-In . SVG Version: 6.00 Build 0)  -->
<svg version="1.1" id="图层_1" xmlns="http://www.w3.org/2000/svg" xmlns:xlink="http://www.w3.org/1999/xlink" x="0px" y="0px"
	 viewBox="0 0 200 200" style="enable-background:new 0 0 200 200;" xml:space="preserve">
<style type="text/css">
	.st0{enable-background:new    ;}
</style>
<path d="M84.5,99.9l-6.9,6.9l-6.9-6.9l-1.9,1.9l6.9,6.9l-6.9,6.9l1.9,1.9l6.9-6.9l6.9,6.9l1.9-1.9l-6.9-6.9l6.9-6.9L84.5,99.9z
	 M200,93.9h-3v-3.1h-2.7v3.1h-3.1v2.7h3.1v3.1h2.7v-3.1h3.1v-2.7H200z M2.5,134.2H24v2.7H2.5V134.2z M59.2,53.7h34.5v2.7H59.2V53.7z
	 M59.2,67.1h47.9v2.7H59.2V67.1z M59.2,80.5h23.4v2.7H59.2V80.5z M19.9,100.6h-2.7v4h-4v2.7h4v4h2.7v-4h4v-2.7h-4
	C19.9,104.7,19.9,100.6,19.9,100.6z"/>
<g>
	<polygon points="30.6,30.9 33.3,30.9 33.3,24.2 40,24.2 40,21.5 33.3,21.5 33.3,14.8 30.6,14.8 30.6,21.5 23.9,21.5 23.9,24.2 
		30.6,24.2 	"/>
	<path d="M7.8,49.9c-4.3,0-7.8,3.5-7.8,7.8s3.5,7.8,7.8,7.8l0,0c4.3,0,7.8-3.5,7.8-7.8C15.7,53.4,12.1,49.9,7.8,49.9z M7.8,62.9
		c-2.8,0-5.1-2.3-5.1-5.1s2.3-5.1,5.1-5.1s5.1,2.3,5.1,5.1S10.7,62.9,7.8,62.9z"/>
	<path d="M145.6,26.9H63.2v13.4H44.7v93.9H29.5v2.7h66.1l9.2,9.2c2.5,2.6,6.8,2.7,9.4,0.2s2.7-6.8,0.2-9.4H127v-13.4h36.4v-2.7
		h-17.8L145.6,26.9L145.6,26.9z M112.3,144.2c-1.6,1.6-4.1,1.6-5.6,0l-5.4-5.4l-4.6-4.6l0,0l-0.8-0.8l0,0l0,0l-2.4-2.4
		c-1.4-1.4-1.5-3.7-0.3-5.3l0.9-0.8c1.6-1,3.7-0.8,5,0.5l6.1,6.1l5.4,5.4l0,0l1.7,1.7C113.8,140.1,113.8,142.6,112.3,144.2z
		 M124.3,134.2h-12.7L101,123.5c-2.1-2.1-5.5-2.6-8.1-1l-1.8-2c6.5-7.4,5.8-18.8-1.7-25.3c-7.4-6.5-18.8-5.8-25.3,1.7
		c-6.5,7.4-5.8,18.8,1.7,25.3c6.7,5.8,16.6,5.9,23.4,0.2l1.7,1.9c-1.9,2.6-1.6,6.3,0.7,8.6l1.3,1.3H47.4V43h77L124.3,134.2z
		 M77.6,123.9c-8.4,0-15.2-6.8-15.2-15.2s6.8-15.2,15.2-15.2s15.2,6.8,15.2,15.2C92.9,117.1,86,123.9,77.6,123.9z M142.9,120.8H127
		V40.3H65.9V29.6h77V120.8z"/>
	<path d="M174.1,33.8c-4.3,0-7.8,3.5-7.8,7.8s3.5,7.8,7.8,7.8s7.8-3.5,7.8-7.8l0,0C182,37.3,178.5,33.8,174.1,33.8z M174.1,46.8
		c-2.8,0-5.1-2.3-5.1-5.2s2.3-5.1,5.2-5.1c2.8,0,5.1,2.3,5.1,5.1C179.3,44.5,177,46.8,174.1,46.8z"/>
</g>
<g class="st0">
	<path d="M86.3,164.8v1.7h-8.6v1.6c0,1.5-0.1,2.9-0.3,4.2h10.8v1.7h-7.4v8.4c0,0.8,0.4,1.2,1.2,1.2h3c0.6,0,1-0.2,1.3-0.5
		c0.3-0.4,0.6-1.5,0.7-3.4l1.6,0.5c-0.2,2.4-0.6,3.8-1.1,4.3c-0.5,0.4-1.2,0.6-2.2,0.6h-3.9c-1.6,0-2.4-0.8-2.4-2.4v-8.7h-1.9
		c-0.4,2.1-1,3.9-1.8,5.4c-1.5,2.6-3.9,4.6-7.2,6.1l-1-1.5c3.3-1.5,5.6-3.4,6.9-5.9c0.6-1.2,1-2.6,1.3-4.1h-7.9v-1.7h8.2
		c0.2-1.3,0.3-2.7,0.3-4.2v-1.6h-6.9v-1.7H86.3z"/>
	<path d="M97.2,174.9c-0.2,0.5-0.3,0.9-0.5,1.3h5v1.4c-0.5,1.6-1.4,3-2.7,4.1c1.2,0.5,2.3,1.1,3.3,1.6l-0.9,1.3
		c-1.1-0.6-2.3-1.3-3.7-1.9c-1.6,1.1-3.6,2-6,2.7l-0.8-1.4c2-0.5,3.7-1.2,5.1-2c-1.1-0.5-2.2-0.9-3.3-1.3c0.6-1.1,1.2-2,1.7-3h-2.8
		v-1.5H95c0.2-0.5,0.4-1,0.6-1.5L97.2,174.9z M96.2,168.1v-4.6h1.6v4.6h4.4v1.5h-4.4v0.3c1.3,0.6,2.6,1.4,4,2.2l-0.9,1.3
		c-1.2-1-2.2-1.7-3.1-2.3v3.1h-1.6v-4.6c-0.8,1.9-2.2,3.5-4.3,4.9l-0.8-1.4c1.8-1.1,3.1-2.3,3.9-3.6h-3.4v-1.5H96.2z M94.8,167
		l-1.2,0.6c-0.5-1.2-1-2.2-1.6-3.1l1.4-0.5C93.9,164.9,94.4,165.9,94.8,167z M100.1,177.7H96c-0.4,0.8-0.8,1.6-1.3,2.3
		c1,0.3,1.9,0.7,2.7,1C98.6,180.1,99.6,178.9,100.1,177.7z M101.9,164.5c-0.5,1.1-1.1,2.1-1.8,3.1l-1.2-0.6c0.8-1,1.4-2,1.8-3
		L101.9,164.5z M104.5,172.7c-0.4,1.1-0.9,2.1-1.4,3l-1.1-1.3c1.4-2.7,2.4-6.3,2.9-10.9l1.7,0.3c-0.1,1.2-0.3,2.4-0.5,3.4h6.3v1.7
		h-1.6c-0.1,4-0.9,7.4-2.2,10.3c1.2,2.2,2.7,3.8,4.4,5l-0.9,1.4c-1.7-1.2-3.1-2.8-4.3-4.8c-1.2,1.9-2.6,3.5-4.4,4.8l-0.9-1.4
		c1.9-1.3,3.3-3,4.4-5C106,177.2,105.2,175.1,104.5,172.7z M105.4,170.1c0.6,2.8,1.4,5.2,2.3,7.2c0.9-2.4,1.4-5.3,1.5-8.5h-3.6
		L105.4,170.1z"/>
	<path d="M115.8,185.3l-0.4-1.6c0.6,0.1,1.2,0.1,1.8,0.1c0.6,0,0.9-0.4,0.9-1v-5.9c-1,0.4-1.9,0.7-2.8,1l-0.4-1.7
		c1.1-0.3,2.2-0.6,3.3-1v-5.4h-2.9v-1.7h2.9v-4.5h1.7v4.5h2.3v1.7h-2.3v4.7c0.8-0.3,1.5-0.7,2.2-1.1v1.7c-0.7,0.4-1.5,0.7-2.2,1.1v7
		c0,1.4-0.7,2.1-2,2.1H115.8z M122.2,185.5l-1.3-1.2c1.7-3.2,2.6-7.3,2.6-12.3v-7.5h12.6v5.8h-4.5v2.8h5.1v1.6h-5.1v3h4v7.9H134
		v-1.2h-6.5v1.2h-1.6v-7.9h4v-3H125C124.7,178.8,123.8,182.4,122.2,185.5z M125.1,170.3v1.7c0,0.4,0,0.8,0,1.2h4.8v-2.8H125.1z
		 M125.1,166.1v2.7h9.3v-2.7H125.1z M134,182.8v-3.6h-6.5v3.6H134z"/>
</g>
</svg>
